<?xml version="1.0" encoding="UTF-8"?>
<svg id="Layer_1" data-name="Layer 1" xmlns="http://www.w3.org/2000/svg" viewBox="0 0 263.38 85.86">
  <defs>
    <style>
      .cls-1 {
        fill: #bcbec0;
      }

      .cls-1, .cls-2, .cls-3, .cls-4 {
        stroke: #231f20;
        stroke-miterlimit: 10;
        stroke-width: 2.44px;
      }

      .cls-2 {
        fill: #fff;
      }

      .cls-3 {
        fill: #f7941d;
      }

      .cls-5 {
        fill: #808285;
      }

      .cls-5, .cls-6 {
        stroke-width: 0px;
      }

      .cls-6 {
        fill: #231f20;
      }

      .cls-4 {
        fill: none;
      }
    </style>
  </defs>
  <line class="cls-4" x1="47.14" x2="47.14" y2="85.86"/>
  <g>
    <path class="cls-5" d="m58.4,43.36v-26.59c0-.26.13-.39.39-.39h1.29c.26,0,.39.13.39.39v24.99c0,.1.05.16.16.16h11.58c.26,0,.39.13.39.39v1.06c0,.26-.13.39-.39.39h-13.41c-.26,0-.39-.13-.39-.39Z"/>
    <path class="cls-5" d="m92.08,43.4l-1.41-5.16c-.03-.08-.09-.12-.2-.12h-9.86c-.1,0-.17.04-.2.12l-1.37,5.16c-.05.23-.2.35-.43.35h-1.33c-.13,0-.23-.04-.29-.12-.07-.08-.08-.18-.06-.31l7.35-26.63c.05-.21.2-.31.43-.31h1.64c.24,0,.38.1.43.31l7.35,26.63.04.12c0,.21-.13.31-.39.31h-1.29c-.23,0-.38-.12-.43-.35Zm-11.09-7.06s.08.06.14.06h8.84c.05,0,.1-.02.14-.06s.04-.07.02-.1l-4.5-16.74c-.03-.05-.05-.08-.08-.08s-.05.03-.08.08l-4.5,16.74s-.02.06.02.1Z"/>
    <path class="cls-5" d="m102.56,43.06c-1.17-.66-2.08-1.6-2.72-2.82s-.96-2.61-.96-4.2v-19.28c0-.26.13-.39.39-.39h1.29c.26,0,.39.13.39.39v19.44c0,1.8.51,3.25,1.54,4.36,1.03,1.11,2.41,1.66,4.13,1.66s3.06-.55,4.11-1.66c1.04-1.11,1.56-2.56,1.56-4.36v-19.44c0-.26.13-.39.39-.39h1.29c.26,0,.39.13.39.39v19.28c0,1.59-.32,2.99-.96,4.2-.64,1.21-1.54,2.15-2.72,2.82-1.17.67-2.53,1-4.07,1s-2.89-.33-4.07-1Z"/>
    <path class="cls-5" d="m120.9,43.36v-26.59c0-.26.13-.39.39-.39h1.29c.24,0,.39.09.47.27l11.3,22.21c.05.05.1.08.14.08s.06-.04.06-.12v-22.06c0-.26.13-.39.39-.39h1.25c.26,0,.39.13.39.39v26.59c0,.26-.13.39-.39.39h-1.33c-.24,0-.39-.09-.47-.27l-11.26-22.21c-.05-.05-.1-.07-.14-.06-.04.01-.06.06-.06.14v22.02c0,.26-.13.39-.39.39h-1.25c-.26,0-.39-.13-.39-.39Z"/>
    <path class="cls-5" d="m144.97,42.01c-1.4-1.37-2.09-3.17-2.09-5.42v-13.1c0-2.24.7-4.04,2.09-5.4,1.39-1.36,3.24-2.03,5.53-2.03s4.18.68,5.57,2.03c1.39,1.36,2.09,3.14,2.09,5.36v.35c0,.13-.04.23-.12.31-.08.08-.17.12-.27.12l-1.29.08c-.26,0-.39-.13-.39-.39v-.55c0-1.64-.52-2.97-1.54-3.97-1.03-1-2.38-1.51-4.05-1.51s-3.01.5-4.03,1.51c-1.02,1-1.53,2.33-1.53,3.97v13.34c0,1.67.51,3.01,1.53,4.01,1.02,1,2.36,1.51,4.03,1.51s3.05-.5,4.07-1.51c1.02-1,1.53-2.34,1.53-4.01v-.47c0-.26.13-.39.39-.39l1.29.08c.1,0,.2.03.27.1.08.07.12.15.12.25v.35c0,2.24-.7,4.04-2.09,5.4-1.4,1.36-3.25,2.03-5.57,2.03s-4.14-.68-5.53-2.05Z"/>
    <path class="cls-5" d="m177.53,16.37h1.29c.26,0,.39.13.39.39v26.59c0,.26-.13.39-.39.39h-1.29c-.26,0-.39-.13-.39-.39v-12.24c0-.1-.05-.16-.16-.16h-10.56c-.1,0-.16.05-.16.16v12.24c0,.26-.13.39-.39.39h-1.29c-.26,0-.39-.13-.39-.39v-26.59c0-.26.13-.39.39-.39h1.29c.26,0,.39.13.39.39v12.2c0,.1.05.16.16.16h10.56c.1,0,.16-.05.16-.16v-12.2c0-.26.13-.39.39-.39Z"/>
    <path class="cls-5" d="m187.56,42.01c-1.4-1.37-2.09-3.17-2.09-5.42v-13.1c0-2.24.7-4.04,2.09-5.4,1.39-1.36,3.24-2.03,5.53-2.03s4.18.68,5.57,2.03c1.39,1.36,2.09,3.14,2.09,5.36v.35c0,.13-.04.23-.12.31-.08.08-.17.12-.27.12l-1.29.08c-.26,0-.39-.13-.39-.39v-.55c0-1.64-.52-2.97-1.54-3.97-1.03-1-2.38-1.51-4.05-1.51s-3.01.5-4.03,1.51c-1.02,1-1.53,2.33-1.53,3.97v13.34c0,1.67.51,3.01,1.53,4.01,1.02,1,2.36,1.51,4.03,1.51s3.05-.5,4.07-1.51c1.02-1,1.53-2.34,1.53-4.01v-.47c0-.26.13-.39.39-.39l1.29.08c.1,0,.2.03.27.1.08.07.12.15.12.25v.35c0,2.24-.7,4.04-2.09,5.4-1.4,1.36-3.25,2.03-5.57,2.03s-4.14-.68-5.53-2.05Z"/>
    <path class="cls-5" d="m208.08,41.93c-1.41-1.42-2.11-3.29-2.11-5.61v-12.52c0-1.51.32-2.85.96-4.03.64-1.17,1.54-2.09,2.72-2.74,1.17-.65,2.52-.98,4.03-.98s2.9.33,4.09.98c1.19.65,2.11,1.56,2.76,2.74s.98,2.52.98,4.03v12.52c0,1.54-.33,2.89-.98,4.07s-1.57,2.08-2.76,2.72c-1.19.64-2.55.96-4.09.96-2.32,0-4.18-.71-5.59-2.13Zm9.76-1.31c1.06-1.07,1.58-2.46,1.58-4.18v-12.67c0-1.75-.53-3.16-1.58-4.24-1.06-1.08-2.44-1.62-4.17-1.62s-3.06.54-4.09,1.62c-1.03,1.08-1.54,2.5-1.54,4.24v12.67c0,1.72.52,3.12,1.56,4.18,1.04,1.07,2.4,1.6,4.07,1.6s3.11-.53,4.17-1.6Z"/>
    <path class="cls-5" d="m227.79,43.36v-26.59c0-.26.13-.39.39-.39h7.39c2.22,0,3.97.65,5.26,1.96,1.29,1.3,1.94,3.08,1.94,5.32v12.83c0,2.24-.65,4.02-1.94,5.32-1.29,1.3-3.04,1.96-5.26,1.96h-7.39c-.26,0-.39-.13-.39-.39Zm2.23-1.45h5.59c1.54,0,2.76-.5,3.68-1.51.91-1,1.37-2.35,1.37-4.05v-12.55c0-1.75-.45-3.12-1.35-4.11s-2.13-1.49-3.7-1.49h-5.59c-.1,0-.16.05-.16.16v23.39c0,.1.05.16.16.16Z"/>
    <path class="cls-5" d="m262.98,18.21h-12.01c-.1,0-.16.05-.16.16v10.6c0,.1.05.16.16.16h8.21c.26,0,.39.13.39.39v1.06c0,.26-.13.39-.39.39h-8.21c-.1,0-.16.05-.16.16v10.64c0,.1.05.16.16.16h12.01c.26,0,.39.13.39.39v1.06c0,.26-.13.39-.39.39h-13.84c-.26,0-.39-.13-.39-.39v-26.59c0-.26.13-.39.39-.39h13.84c.26,0,.39.13.39.39v1.06c0,.26-.13.39-.39.39Z"/>
    <path class="cls-6" d="m57.61,70.32c-1.01-.9-1.51-2.07-1.51-3.53v-.73c0-.17.09-.26.26-.26h1.93c.17,0,.26.09.26.26v.6c0,.83.29,1.52.86,2.05.57.53,1.34.79,2.29.79.9,0,1.61-.24,2.12-.72s.77-1.11.77-1.89c0-.52-.13-.97-.39-1.36s-.64-.74-1.13-1.07c-.5-.33-1.22-.75-2.18-1.25-1.06-.56-1.9-1.05-2.53-1.49-.62-.43-1.15-.98-1.56-1.64-.42-.66-.62-1.46-.62-2.4,0-1.46.48-2.61,1.43-3.44.96-.83,2.22-1.25,3.78-1.25,1.11,0,2.09.21,2.92.63.83.42,1.48,1,1.94,1.76.46.76.69,1.63.69,2.62v.6c0,.17-.09.26-.26.26h-1.96c-.17,0-.26-.09-.26-.26v-.55c0-.85-.28-1.55-.83-2.09-.56-.54-1.32-.81-2.29-.81-.83,0-1.5.22-1.98.65-.49.44-.73,1.05-.73,1.85,0,.52.12.96.37,1.33.24.36.6.7,1.08,1.02.48.31,1.2.72,2.15,1.23,1.2.68,2.11,1.23,2.74,1.67s1.13.96,1.53,1.59c.39.63.59,1.38.59,2.27,0,1.5-.5,2.69-1.49,3.57-.99.89-2.31,1.33-3.96,1.33s-3.01-.45-4.02-1.34Z"/>
    <path class="cls-6" d="m75.37,60.11h-2.32c-.07,0-.1.04-.1.1v7.09c0,.71.14,1.22.43,1.51.29.3.73.44,1.34.44h.5c.17,0,.26.09.26.26v1.64c0,.17-.09.26-.26.26l-1.02.03c-1.22,0-2.13-.23-2.75-.69-.62-.46-.93-1.32-.93-2.57v-7.98c0-.07-.04-.1-.1-.1h-1.28c-.17,0-.26-.09-.26-.26v-1.41c0-.17.09-.26.26-.26h1.28c.07,0,.1-.03.1-.1v-3c0-.17.09-.26.26-.26h1.9c.17,0,.26.09.26.26v3c0,.07.03.1.1.1h2.32c.17,0,.26.09.26.26v1.41c0,.17-.09.26-.26.26Z"/>
    <path class="cls-6" d="m85.38,58.18h1.98c.17,0,.26.09.26.26v12.75c0,.17-.09.26-.26.26h-1.98c-.17,0-.26-.09-.26-.26v-.81s-.01-.06-.04-.08c-.03-.02-.06,0-.09.03-.61.87-1.56,1.3-2.87,1.3-1.18,0-2.16-.35-2.93-1.04s-1.16-1.7-1.16-3.02v-9.13c0-.17.09-.26.26-.26h1.96c.17,0,.26.09.26.26v8.45c0,.82.2,1.45.59,1.9.39.45.95.68,1.68.68s1.28-.24,1.71-.72c.43-.48.64-1.12.64-1.94v-8.37c0-.17.09-.26.26-.26Z"/>
    <path class="cls-6" d="m98.1,53.2h1.98c.17,0,.26.09.26.26v17.73c0,.17-.09.26-.26.26h-1.98c-.17,0-.26-.09-.26-.26v-.86s-.02-.06-.05-.08c-.04-.02-.06,0-.08.03-.66.92-1.63,1.38-2.92,1.38-1.1,0-1.97-.32-2.63-.95-.66-.63-1.14-1.59-1.43-2.88-.21-.9-.31-1.9-.31-3s.09-2.08.26-2.95c.5-2.61,1.91-3.91,4.22-3.91,1.27,0,2.21.44,2.82,1.33.02.05.04.07.08.06.03,0,.05-.04.05-.09v-5.81c0-.17.09-.26.26-.26Zm-.26,11.6c0-1.25-.11-2.23-.34-2.92-.35-1.16-1.03-1.75-2.03-1.75-.52,0-.96.15-1.33.46s-.63.72-.81,1.24c-.26.73-.39,1.72-.39,2.97s.1,2.17.31,2.87c.35,1.22,1.08,1.83,2.19,1.83,1.04,0,1.74-.6,2.09-1.8.21-.7.31-1.66.31-2.89Z"/>
    <path class="cls-6" d="m103.78,55.74c-.31-.3-.47-.7-.47-1.19s.16-.88.47-1.19.71-.46,1.2-.46.88.15,1.19.46c.3.3.46.7.46,1.19s-.15.88-.46,1.19c-.3.3-.7.46-1.19.46s-.89-.15-1.2-.46Zm-.05,15.45v-12.75c0-.17.09-.26.26-.26h1.98c.17,0,.26.09.26.26v12.75c0,.17-.09.26-.26.26h-1.98c-.17,0-.26-.09-.26-.26Z"/>
    <path class="cls-6" d="m111.1,70.62c-.88-.69-1.41-1.65-1.6-2.87-.16-1.01-.24-1.99-.24-2.95,0-1.08.07-2.05.21-2.92.19-1.2.73-2.15,1.6-2.85.88-.7,1.99-1.06,3.32-1.06s2.39.35,3.25,1.06,1.39,1.65,1.6,2.83c.16,1.03.23,2,.23,2.92s-.08,1.95-.23,2.97c-.21,1.22-.74,2.17-1.6,2.87-.86.7-1.94,1.04-3.25,1.04s-2.42-.35-3.3-1.04Zm4.89-1.72c.43-.4.7-.93.81-1.59.1-.73.16-1.56.16-2.5,0-.87-.04-1.69-.13-2.48-.1-.66-.38-1.19-.82-1.59s-.99-.6-1.63-.6-1.19.2-1.63.6c-.44.4-.72.93-.82,1.59-.09.78-.13,1.61-.13,2.48s.04,1.72.13,2.5c.1.66.38,1.19.82,1.59.44.4.99.6,1.66.6.63,0,1.16-.2,1.59-.6Z"/>
    <path class="cls-6" d="m123.14,70.62c-.86-.66-1.29-1.51-1.29-2.56v-.26c0-.17.09-.26.26-.26h1.88c.17,0,.26.07.26.21v.21c0,.49.22.9.66,1.24.44.34,1,.51,1.68.51s1.19-.17,1.59-.5.6-.74.6-1.23c0-.38-.12-.69-.35-.94-.23-.24-.52-.44-.86-.59-.34-.15-.84-.33-1.5-.56-.82-.26-1.51-.53-2.07-.82-.57-.29-1.05-.69-1.45-1.23s-.6-1.2-.6-2.02c0-1.16.41-2.09,1.24-2.76.83-.68,1.92-1.02,3.3-1.02s2.53.35,3.38,1.04c.84.7,1.26,1.61,1.26,2.74v.05c0,.17-.09.26-.26.26h-1.83c-.17,0-.26-.06-.26-.18v-.18c0-.5-.21-.92-.63-1.25-.42-.33-.96-.5-1.64-.5-.64,0-1.16.16-1.56.47-.4.31-.6.71-.6,1.2,0,.37.11.67.34.9.23.23.51.43.85.59s.84.35,1.5.57c.87.3,1.59.58,2.15.86.56.28,1.06.68,1.47,1.2.42.52.62,1.19.62,2.01,0,1.16-.43,2.09-1.28,2.76s-2,1.02-3.44,1.02-2.57-.33-3.43-.99Z"/>
  </g>
  <line class="cls-4" x1="24.83" y1="13.81" x2="24.83" y2="42.93"/>
  <line class="cls-4" x1="32.73" y1="42.93" x2="32.73" y2="65.55"/>
  <line class="cls-4" x1="8.7" y1="42.93" x2="47.14" y2="42.93"/>
  <circle class="cls-1" cx="8.8" cy="42.93" r="7.57"/>
  <circle class="cls-2" cx="24.83" cy="13.81" r="7.57"/>
  <circle class="cls-3" cx="32.73" cy="69.31" r="7.57"/>
</svg>