<?xml version="1.0" encoding="utf-8"?>
<!-- Generator: Adobe Illustrator 28.0.0, SVG Export Plug-In . SVG Version: 6.00 Build 0)  -->
<svg version="1.1" id="Layer_1" xmlns="http://www.w3.org/2000/svg" xmlns:xlink="http://www.w3.org/1999/xlink" x="0px" y="0px"
	 viewBox="0 0 263.4 85.9" style="enable-background:new 0 0 263.4 85.9;" xml:space="preserve">
<style type="text/css">
	.st0{fill:none;stroke:#231F20;stroke-width:2.44;stroke-miterlimit:10;}
	.st1{fill:#808285;}
	.st2{fill:#231F20;}
	.st3{fill:#BCBEC0;stroke:#231F20;stroke-width:2.44;stroke-miterlimit:10;}
	.st4{fill:#FFFFFF;stroke:#231F20;stroke-width:2.44;stroke-miterlimit:10;}
	.st5{fill:#F7941D;stroke:#231F20;stroke-width:2.44;stroke-miterlimit:10;}
</style>
<line class="st0" x1="47.1" y1="0" x2="47.1" y2="85.9"/>
<g>
	<path class="st1" d="M58.4,43.4V16.8c0-0.3,0.1-0.4,0.4-0.4h1.3c0.3,0,0.4,0.1,0.4,0.4v25c0,0.1,0,0.2,0.2,0.2h11.6
		c0.3,0,0.4,0.1,0.4,0.4v1.1c0,0.3-0.1,0.4-0.4,0.4H58.8C58.5,43.8,58.4,43.6,58.4,43.4L58.4,43.4z"/>
	<path class="st1" d="M92.1,43.4l-1.4-5.2c0-0.1-0.1-0.1-0.2-0.1h-9.9c-0.1,0-0.2,0-0.2,0.1L79,43.4c-0.1,0.2-0.2,0.3-0.4,0.3h-1.3
		c-0.1,0-0.2,0-0.3-0.1c-0.1-0.1-0.1-0.2-0.1-0.3l7.3-26.6c0.1-0.2,0.2-0.3,0.4-0.3h1.6c0.2,0,0.4,0.1,0.4,0.3l7.3,26.6l0,0.1
		c0,0.2-0.1,0.3-0.4,0.3h-1.3C92.3,43.8,92.1,43.6,92.1,43.4L92.1,43.4z M81,36.3c0,0,0.1,0.1,0.1,0.1H90c0.1,0,0.1,0,0.1-0.1
		s0-0.1,0-0.1l-4.5-16.7c0,0-0.1-0.1-0.1-0.1s-0.1,0-0.1,0.1L81,36.3C81,36.2,80.9,36.3,81,36.3L81,36.3z"/>
	<path class="st1" d="M102.6,43.1c-1.2-0.7-2.1-1.6-2.7-2.8s-1-2.6-1-4.2V16.8c0-0.3,0.1-0.4,0.4-0.4h1.3c0.3,0,0.4,0.1,0.4,0.4
		v19.4c0,1.8,0.5,3.2,1.5,4.4s2.4,1.7,4.1,1.7s3.1-0.5,4.1-1.7c1-1.1,1.6-2.6,1.6-4.4V16.8c0-0.3,0.1-0.4,0.4-0.4h1.3
		c0.3,0,0.4,0.1,0.4,0.4V36c0,1.6-0.3,3-1,4.2s-1.5,2.2-2.7,2.8c-1.2,0.7-2.5,1-4.1,1S103.7,43.7,102.6,43.1L102.6,43.1z"/>
	<path class="st1" d="M120.9,43.4V16.8c0-0.3,0.1-0.4,0.4-0.4h1.3c0.2,0,0.4,0.1,0.5,0.3l11.3,22.2c0.1,0,0.1,0.1,0.1,0.1
		s0.1,0,0.1-0.1V16.8c0-0.3,0.1-0.4,0.4-0.4h1.2c0.3,0,0.4,0.1,0.4,0.4v26.6c0,0.3-0.1,0.4-0.4,0.4h-1.3c-0.2,0-0.4-0.1-0.5-0.3
		l-11.3-22.2c-0.1,0-0.1-0.1-0.1-0.1s-0.1,0.1-0.1,0.1v22c0,0.3-0.1,0.4-0.4,0.4h-1.2C121,43.8,120.9,43.6,120.9,43.4z"/>
	<path class="st1" d="M145,42c-1.4-1.4-2.1-3.2-2.1-5.4V23.5c0-2.2,0.7-4,2.1-5.4s3.2-2,5.5-2s4.2,0.7,5.6,2
		c1.4,1.4,2.1,3.1,2.1,5.4v0.4c0,0.1,0,0.2-0.1,0.3s-0.2,0.1-0.3,0.1l-1.3,0.1c-0.3,0-0.4-0.1-0.4-0.4v-0.5c0-1.6-0.5-3-1.5-4
		c-1-1-2.4-1.5-4.1-1.5s-3,0.5-4,1.5c-1,1-1.5,2.3-1.5,4v13.3c0,1.7,0.5,3,1.5,4c1,1,2.4,1.5,4,1.5s3.1-0.5,4.1-1.5
		c1-1,1.5-2.3,1.5-4v-0.5c0-0.3,0.1-0.4,0.4-0.4l1.3,0.1c0.1,0,0.2,0,0.3,0.1c0.1,0.1,0.1,0.2,0.1,0.2v0.3c0,2.2-0.7,4-2.1,5.4
		c-1.4,1.4-3.2,2-5.6,2S146.4,43.4,145,42L145,42z"/>
	<path class="st1" d="M177.5,16.4h1.3c0.3,0,0.4,0.1,0.4,0.4v26.6c0,0.3-0.1,0.4-0.4,0.4h-1.3c-0.3,0-0.4-0.1-0.4-0.4V31.1
		c0-0.1-0.1-0.2-0.2-0.2h-10.6c-0.1,0-0.2,0-0.2,0.2v12.2c0,0.3-0.1,0.4-0.4,0.4h-1.3c-0.3,0-0.4-0.1-0.4-0.4V16.8
		c0-0.3,0.1-0.4,0.4-0.4h1.3c0.3,0,0.4,0.1,0.4,0.4V29c0,0.1,0.1,0.2,0.2,0.2H177c0.1,0,0.2,0,0.2-0.2V16.8
		C177.1,16.5,177.3,16.4,177.5,16.4z"/>
	<path class="st1" d="M187.6,42c-1.4-1.4-2.1-3.2-2.1-5.4V23.5c0-2.2,0.7-4,2.1-5.4s3.2-2,5.5-2s4.2,0.7,5.6,2
		c1.4,1.4,2.1,3.1,2.1,5.4v0.4c0,0.1,0,0.2-0.1,0.3s-0.2,0.1-0.3,0.1l-1.3,0.1c-0.3,0-0.4-0.1-0.4-0.4v-0.5c0-1.6-0.5-3-1.5-4
		c-1-1-2.4-1.5-4.1-1.5s-3,0.5-4,1.5c-1,1-1.5,2.3-1.5,4v13.3c0,1.7,0.5,3,1.5,4c1,1,2.4,1.5,4,1.5s3.1-0.5,4.1-1.5
		c1-1,1.5-2.3,1.5-4v-0.5c0-0.3,0.1-0.4,0.4-0.4l1.3,0.1c0.1,0,0.2,0,0.3,0.1c0.1,0.1,0.1,0.2,0.1,0.2v0.3c0,2.2-0.7,4-2.1,5.4
		c-1.4,1.4-3.2,2-5.6,2S189,43.4,187.6,42L187.6,42z"/>
	<path class="st1" d="M208.1,41.9c-1.4-1.4-2.1-3.3-2.1-5.6V23.8c0-1.5,0.3-2.9,1-4c0.6-1.2,1.5-2.1,2.7-2.7c1.2-0.6,2.5-1,4-1
		s2.9,0.3,4.1,1s2.1,1.6,2.8,2.7s1,2.5,1,4v12.5c0,1.5-0.3,2.9-1,4.1s-1.6,2.1-2.8,2.7c-1.2,0.6-2.6,1-4.1,1
		C211.4,44.1,209.5,43.4,208.1,41.9L208.1,41.9z M217.8,40.6c1.1-1.1,1.6-2.5,1.6-4.2V23.8c0-1.8-0.5-3.2-1.6-4.2
		c-1.1-1.1-2.4-1.6-4.2-1.6s-3.1,0.5-4.1,1.6S208,22,208,23.8v12.7c0,1.7,0.5,3.1,1.6,4.2c1,1.1,2.4,1.6,4.1,1.6
		S216.8,41.7,217.8,40.6L217.8,40.6z"/>
	<path class="st1" d="M227.8,43.4V16.8c0-0.3,0.1-0.4,0.4-0.4h7.4c2.2,0,4,0.6,5.3,2c1.3,1.3,1.9,3.1,1.9,5.3v12.8
		c0,2.2-0.6,4-1.9,5.3c-1.3,1.3-3,2-5.3,2h-7.4C227.9,43.8,227.8,43.6,227.8,43.4L227.8,43.4z M230,41.9h5.6c1.5,0,2.8-0.5,3.7-1.5
		c0.9-1,1.4-2.3,1.4-4V23.8c0-1.8-0.4-3.1-1.4-4.1s-2.1-1.5-3.7-1.5H230c-0.1,0-0.2,0-0.2,0.2v23.4C229.9,41.8,229.9,41.9,230,41.9
		L230,41.9z"/>
	<path class="st1" d="M263,18.2h-12c-0.1,0-0.2,0-0.2,0.2V29c0,0.1,0.1,0.2,0.2,0.2h8.2c0.3,0,0.4,0.1,0.4,0.4v1.1
		c0,0.3-0.1,0.4-0.4,0.4H251c-0.1,0-0.2,0-0.2,0.2v10.6c0,0.1,0.1,0.2,0.2,0.2h12c0.3,0,0.4,0.1,0.4,0.4v1.1c0,0.3-0.1,0.4-0.4,0.4
		h-13.8c-0.3,0-0.4-0.1-0.4-0.4V16.8c0-0.3,0.1-0.4,0.4-0.4H263c0.3,0,0.4,0.1,0.4,0.4v1.1C263.4,18.1,263.2,18.2,263,18.2L263,18.2
		z"/>
	<path class="st2" d="M57.6,70.3c-1-0.9-1.5-2.1-1.5-3.5v-0.7c0-0.2,0.1-0.3,0.3-0.3h1.9c0.2,0,0.3,0.1,0.3,0.3v0.6
		c0,0.8,0.3,1.5,0.9,2.1c0.6,0.5,1.3,0.8,2.3,0.8c0.9,0,1.6-0.2,2.1-0.7c0.5-0.5,0.8-1.1,0.8-1.9c0-0.5-0.1-1-0.4-1.4
		s-0.6-0.7-1.1-1.1c-0.5-0.3-1.2-0.8-2.2-1.2c-1.1-0.6-1.9-1-2.5-1.5c-0.6-0.4-1.2-1-1.6-1.6c-0.4-0.7-0.6-1.5-0.6-2.4
		c0-1.5,0.5-2.6,1.4-3.4c1-0.8,2.2-1.2,3.8-1.2c1.1,0,2.1,0.2,2.9,0.6c0.8,0.4,1.5,1,1.9,1.8s0.7,1.6,0.7,2.6v0.6
		c0,0.2-0.1,0.3-0.3,0.3h-2c-0.2,0-0.3-0.1-0.3-0.3V58c0-0.8-0.3-1.5-0.8-2.1c-0.6-0.5-1.3-0.8-2.3-0.8c-0.8,0-1.5,0.2-2,0.7
		c-0.5,0.4-0.7,1-0.7,1.8c0,0.5,0.1,1,0.4,1.3c0.2,0.4,0.6,0.7,1.1,1c0.5,0.3,1.2,0.7,2.2,1.2c1.2,0.7,2.1,1.2,2.7,1.7
		s1.1,1,1.5,1.6c0.4,0.6,0.6,1.4,0.6,2.3c0,1.5-0.5,2.7-1.5,3.6c-1,0.9-2.3,1.3-4,1.3S58.6,71.2,57.6,70.3L57.6,70.3z"/>
	<path class="st2" d="M75.4,60.1h-2.3c-0.1,0-0.1,0-0.1,0.1v7.1c0,0.7,0.1,1.2,0.4,1.5c0.3,0.3,0.7,0.4,1.3,0.4h0.5
		c0.2,0,0.3,0.1,0.3,0.3v1.6c0,0.2-0.1,0.3-0.3,0.3l-1,0c-1.2,0-2.1-0.2-2.8-0.7s-0.9-1.3-0.9-2.6v-8c0-0.1,0-0.1-0.1-0.1h-1.3
		c-0.2,0-0.3-0.1-0.3-0.3v-1.4c0-0.2,0.1-0.3,0.3-0.3h1.3c0.1,0,0.1,0,0.1-0.1v-3c0-0.2,0.1-0.3,0.3-0.3h1.9c0.2,0,0.3,0.1,0.3,0.3
		v3c0,0.1,0,0.1,0.1,0.1h2.3c0.2,0,0.3,0.1,0.3,0.3v1.4C75.6,60,75.5,60.1,75.4,60.1L75.4,60.1z"/>
	<path class="st2" d="M85.4,58.2h2c0.2,0,0.3,0.1,0.3,0.3v12.8c0,0.2-0.1,0.3-0.3,0.3h-2c-0.2,0-0.3-0.1-0.3-0.3v-0.8
		c0,0,0-0.1,0-0.1c0,0-0.1,0-0.1,0c-0.6,0.9-1.6,1.3-2.9,1.3c-1.2,0-2.2-0.3-2.9-1s-1.2-1.7-1.2-3v-9.1c0-0.2,0.1-0.3,0.3-0.3h2
		c0.2,0,0.3,0.1,0.3,0.3v8.5c0,0.8,0.2,1.4,0.6,1.9c0.4,0.4,0.9,0.7,1.7,0.7s1.3-0.2,1.7-0.7s0.6-1.1,0.6-1.9v-8.4
		C85.1,58.3,85.2,58.2,85.4,58.2L85.4,58.2z"/>
	<path class="st2" d="M98.1,53.2h2c0.2,0,0.3,0.1,0.3,0.3v17.7c0,0.2-0.1,0.3-0.3,0.3h-2c-0.2,0-0.3-0.1-0.3-0.3v-0.9
		c0,0,0-0.1-0.1-0.1c0,0-0.1,0-0.1,0c-0.7,0.9-1.6,1.4-2.9,1.4c-1.1,0-2-0.3-2.6-0.9c-0.7-0.6-1.1-1.6-1.4-2.9
		c-0.2-0.9-0.3-1.9-0.3-3s0.1-2.1,0.3-3c0.5-2.6,1.9-3.9,4.2-3.9c1.3,0,2.2,0.4,2.8,1.3c0,0,0,0.1,0.1,0.1c0,0,0.1,0,0.1-0.1v-5.8
		C97.9,53.3,97.9,53.2,98.1,53.2L98.1,53.2z M97.8,64.8c0-1.2-0.1-2.2-0.3-2.9c-0.3-1.2-1-1.8-2-1.8c-0.5,0-1,0.2-1.3,0.5
		s-0.6,0.7-0.8,1.2c-0.3,0.7-0.4,1.7-0.4,3c0,1.2,0.1,2.2,0.3,2.9c0.3,1.2,1.1,1.8,2.2,1.8c1,0,1.7-0.6,2.1-1.8
		C97.7,67,97.8,66,97.8,64.8L97.8,64.8z"/>
	<path class="st2" d="M103.8,55.7c-0.3-0.3-0.5-0.7-0.5-1.2s0.2-0.9,0.5-1.2s0.7-0.5,1.2-0.5s0.9,0.2,1.2,0.5
		c0.3,0.3,0.5,0.7,0.5,1.2s-0.2,0.9-0.5,1.2c-0.3,0.3-0.7,0.5-1.2,0.5S104.1,56,103.8,55.7z M103.7,71.2V58.4c0-0.2,0.1-0.3,0.3-0.3
		h2c0.2,0,0.3,0.1,0.3,0.3v12.8c0,0.2-0.1,0.3-0.3,0.3h-2C103.8,71.5,103.7,71.4,103.7,71.2z"/>
	<path class="st2" d="M111.1,70.6c-0.9-0.7-1.4-1.7-1.6-2.9c-0.2-1-0.2-2-0.2-2.9c0-1.1,0.1-2,0.2-2.9c0.2-1.2,0.7-2.2,1.6-2.8
		c0.9-0.7,2-1.1,3.3-1.1s2.4,0.3,3.2,1.1s1.4,1.7,1.6,2.8c0.2,1,0.2,2,0.2,2.9s-0.1,1.9-0.2,3c-0.2,1.2-0.7,2.2-1.6,2.9
		c-0.9,0.7-1.9,1-3.2,1S112,71.3,111.1,70.6L111.1,70.6z M116,68.9c0.4-0.4,0.7-0.9,0.8-1.6c0.1-0.7,0.2-1.6,0.2-2.5
		c0-0.9,0-1.7-0.1-2.5c-0.1-0.7-0.4-1.2-0.8-1.6s-1-0.6-1.6-0.6s-1.2,0.2-1.6,0.6c-0.4,0.4-0.7,0.9-0.8,1.6
		c-0.1,0.8-0.1,1.6-0.1,2.5c0,0.9,0,1.7,0.1,2.5c0.1,0.7,0.4,1.2,0.8,1.6c0.4,0.4,1,0.6,1.7,0.6C115,69.5,115.6,69.3,116,68.9
		L116,68.9z"/>
	<path class="st2" d="M123.1,70.6c-0.9-0.7-1.3-1.5-1.3-2.6v-0.3c0-0.2,0.1-0.3,0.3-0.3h1.9c0.2,0,0.3,0.1,0.3,0.2V68
		c0,0.5,0.2,0.9,0.7,1.2s1,0.5,1.7,0.5s1.2-0.2,1.6-0.5c0.4-0.3,0.6-0.7,0.6-1.2c0-0.4-0.1-0.7-0.4-0.9c-0.2-0.2-0.5-0.4-0.9-0.6
		c-0.3-0.2-0.8-0.3-1.5-0.6c-0.8-0.3-1.5-0.5-2.1-0.8c-0.6-0.3-1.1-0.7-1.4-1.2s-0.6-1.2-0.6-2c0-1.2,0.4-2.1,1.2-2.8
		c0.8-0.7,1.9-1,3.3-1s2.5,0.3,3.4,1c0.8,0.7,1.3,1.6,1.3,2.7v0c0,0.2-0.1,0.3-0.3,0.3H129c-0.2,0-0.3-0.1-0.3-0.2v-0.2
		c0-0.5-0.2-0.9-0.6-1.2s-1-0.5-1.6-0.5c-0.6,0-1.2,0.2-1.6,0.5c-0.4,0.3-0.6,0.7-0.6,1.2c0,0.4,0.1,0.7,0.3,0.9
		c0.2,0.2,0.5,0.4,0.8,0.6s0.8,0.3,1.5,0.6c0.9,0.3,1.6,0.6,2.1,0.9s1.1,0.7,1.5,1.2c0.4,0.5,0.6,1.2,0.6,2c0,1.2-0.4,2.1-1.3,2.8
		s-2,1-3.4,1S124,71.3,123.1,70.6L123.1,70.6z"/>
</g>
<line class="st0" x1="24.8" y1="13.8" x2="24.8" y2="42.9"/>
<line class="st0" x1="32.7" y1="42.9" x2="32.7" y2="65.6"/>
<line class="st0" x1="8.7" y1="42.9" x2="47.1" y2="42.9"/>
<circle class="st3" cx="8.8" cy="42.9" r="7.6"/>
<circle class="st4" cx="24.8" cy="13.8" r="7.6"/>
<circle class="st5" cx="32.7" cy="69.3" r="7.6"/>
</svg>
